<svg data-v-423bf9ae="" xmlns="http://www.w3.org/2000/svg" viewBox="0 0 474 90" class="iconLeft"><!----><!----><!----><g data-v-423bf9ae="" id="afdf4507-523b-49c5-aae1-2f3e4d8dcaaa" fill="white" transform="matrix(5.571030616760254,0,0,5.571030616760254,121.12857818603516,1.8523684740066528)"><path d="M3.46 13.13L3.46 13.13L3.46 13.13Q2.78 13.13 2.25 12.99L2.25 12.99L2.25 12.99Q1.73 12.84 1.38 12.59L1.38 12.59L1.38 12.59Q1.03 12.33 0.85 11.97L0.85 11.97L0.85 11.97Q0.67 11.60 0.67 11.16L0.67 11.16L0.67 11.16Q0.67 10.74 0.93 10.48L0.93 10.48L0.93 10.48Q1.20 10.22 1.68 10.22L1.68 10.22L1.68 10.22Q1.70 10.66 1.81 11.06L1.81 11.06L1.81 11.06Q1.93 11.46 2.15 11.77L2.15 11.77L2.15 11.77Q2.38 12.08 2.73 12.26L2.73 12.26L2.73 12.26Q3.08 12.45 3.57 12.45L3.57 12.45L3.57 12.45Q4.51 12.45 5.04 11.99L5.04 11.99L5.04 11.99Q5.57 11.54 5.57 10.68L5.57 10.68L5.57 10.68Q5.57 10.30 5.46 10.01L5.46 10.01L5.46 10.01Q5.35 9.71 5.10 9.46L5.10 9.46L5.10 9.46Q4.85 9.21 4.43 8.99L4.43 8.99L4.43 8.99Q4.02 8.76 3.40 8.50L3.40 8.50L3.40 8.50Q2.75 8.24 2.27 7.93L2.27 7.93L2.27 7.93Q1.78 7.63 1.46 7.26L1.46 7.26L1.46 7.26Q1.14 6.88 0.98 6.43L0.98 6.43L0.98 6.43Q0.83 5.97 0.83 5.39L0.83 5.39L0.83 5.39Q0.83 4.79 1.06 4.32L1.06 4.32L1.06 4.32Q1.29 3.85 1.70 3.52L1.70 3.52L1.70 3.52Q2.11 3.20 2.67 3.03L2.67 3.03L2.67 3.03Q3.23 2.86 3.89 2.86L3.89 2.86L3.89 2.86Q4.52 2.86 5.00 2.99L5.00 2.99L5.00 2.99Q5.49 3.12 5.82 3.34L5.82 3.34L5.82 3.34Q6.16 3.55 6.33 3.84L6.33 3.84L6.33 3.84Q6.51 4.12 6.51 4.43L6.51 4.43L6.51 4.43Q6.51 4.88 6.21 5.11L6.21 5.11L6.21 5.11Q5.91 5.34 5.41 5.34L5.41 5.34L5.41 5.34Q5.41 5.01 5.33 4.69L5.33 4.69L5.33 4.69Q5.25 4.38 5.07 4.13L5.07 4.13L5.07 4.13Q4.88 3.88 4.58 3.72L4.58 3.72L4.58 3.72Q4.28 3.56 3.83 3.56L3.83 3.56L3.83 3.56Q3.43 3.56 3.11 3.67L3.11 3.67L3.11 3.67Q2.80 3.79 2.58 4.00L2.58 4.00L2.58 4.00Q2.36 4.20 2.24 4.50L2.24 4.50L2.24 4.50Q2.13 4.79 2.13 5.15L2.13 5.15L2.13 5.15Q2.13 5.57 2.24 5.89L2.24 5.89L2.24 5.89Q2.34 6.21 2.60 6.46L2.60 6.46L2.60 6.46Q2.86 6.72 3.27 6.95L3.27 6.95L3.27 6.95Q3.69 7.18 4.30 7.42L4.30 7.42L4.30 7.42Q4.92 7.68 5.40 7.96L5.40 7.96L5.40 7.96Q5.88 8.24 6.21 8.58L6.21 8.58L6.21 8.58Q6.55 8.93 6.73 9.35L6.73 9.35L6.73 9.35Q6.90 9.78 6.90 10.32L6.90 10.32L6.90 10.32Q6.90 10.99 6.66 11.51L6.66 11.51L6.66 11.51Q6.42 12.03 5.97 12.39L5.97 12.39L5.97 12.39Q5.52 12.76 4.88 12.94L4.88 12.94L4.88 12.94Q4.25 13.13 3.46 13.13ZM11.73 12.41L11.77 12.41L11.77 13.00L8.00 13.00L8.00 12.41L8.19 12.41L8.19 12.41Q8.43 12.41 8.63 12.37L8.63 12.37L8.63 12.37Q8.83 12.34 8.97 12.23L8.97 12.23L8.97 12.23Q9.11 12.13 9.19 11.93L9.19 11.93L9.19 11.93Q9.27 11.73 9.27 11.40L9.27 11.40L9.27 7.03L9.27 7.03Q9.27 6.73 9.19 6.54L9.19 6.54L9.19 6.54Q9.11 6.35 8.96 6.25L8.96 6.25L8.96 6.25Q8.82 6.15 8.62 6.11L8.62 6.11L8.62 6.11Q8.42 6.08 8.19 6.08L8.19 6.08L8.15 6.08L8.15 5.49L10.34 5.49L10.53 6.62L10.60 6.62L10.60 6.62Q10.81 6.23 11.04 5.98L11.04 5.98L11.04 5.98Q11.27 5.74 11.54 5.60L11.54 5.60L11.54 5.60Q11.80 5.46 12.09 5.40L12.09 5.40L12.09 5.40Q12.38 5.35 12.71 5.35L12.71 5.35L12.71 5.35Q13.05 5.35 13.36 5.42L13.36 5.42L13.36 5.42Q13.67 5.49 13.93 5.64L13.93 5.64L13.93 5.64Q14.19 5.79 14.40 6.03L14.40 6.03L14.40 6.03Q14.61 6.28 14.74 6.62L14.74 6.62L14.85 6.62L14.85 6.62Q15.07 6.23 15.31 5.98L15.31 5.98L15.31 5.98Q15.56 5.74 15.84 5.60L15.84 5.60L15.84 5.60Q16.11 5.46 16.42 5.40L16.42 5.40L16.42 5.40Q16.72 5.35 17.05 5.35L17.05 5.35L17.05 5.35Q17.58 5.35 18.01 5.51L18.01 5.51L18.01 5.51Q18.43 5.67 18.72 6.01L18.72 6.01L18.72 6.01Q19.02 6.34 19.17 6.86L19.17 6.86L19.17 6.86Q19.33 7.38 19.33 8.09L19.33 8.09L19.33 11.40L19.33 11.40Q19.33 11.73 19.41 11.93L19.41 11.93L19.41 11.93Q19.50 12.13 19.64 12.23L19.64 12.23L19.64 12.23Q19.78 12.34 19.98 12.37L19.98 12.37L19.98 12.37Q20.18 12.41 20.41 12.41L20.41 12.41L20.45 12.41L20.45 13.00L18.02 13.00L18.02 8.16L18.02 8.16Q18.02 7.70 17.94 7.35L17.94 7.35L17.94 7.35Q17.86 6.99 17.69 6.75L17.69 6.75L17.69 6.75Q17.51 6.50 17.23 6.37L17.23 6.37L17.23 6.37Q16.95 6.25 16.55 6.25L16.55 6.25L16.55 6.25Q16.11 6.25 15.81 6.42L15.81 6.42L15.81 6.42Q15.52 6.58 15.33 6.87L15.33 6.87L15.33 6.87Q15.15 7.16 15.07 7.53L15.07 7.53L15.07 7.53Q14.99 7.91 14.99 8.33L14.99 8.33L14.99 11.40L14.99 11.40Q14.99 11.73 15.07 11.93L15.07 11.93L15.07 11.93Q15.16 12.13 15.30 12.23L15.30 12.23L15.30 12.23Q15.44 12.34 15.64 12.37L15.64 12.37L15.64 12.37Q15.84 12.41 16.07 12.41L16.07 12.41L16.11 12.41L16.11 13.00L13.68 13.00L13.68 8.16L13.68 8.16Q13.68 7.70 13.60 7.35L13.60 7.35L13.60 7.35Q13.52 6.99 13.35 6.75L13.35 6.75L13.35 6.75Q13.17 6.50 12.89 6.37L12.89 6.37L12.89 6.37Q12.61 6.25 12.21 6.25L12.21 6.25L12.21 6.25Q11.75 6.25 11.44 6.43L11.44 6.43L11.44 6.43Q11.13 6.62 10.94 6.93L10.94 6.93L10.94 6.93Q10.75 7.25 10.66 7.66L10.66 7.66L10.66 7.66Q10.58 8.07 10.58 8.52L10.58 8.52L10.58 11.47L10.58 11.47Q10.58 11.78 10.67 11.97L10.67 11.97L10.67 11.97Q10.77 12.15 10.92 12.25L10.92 12.25L10.92 12.25Q11.08 12.35 11.29 12.38L11.29 12.38L11.29 12.38Q11.50 12.41 11.73 12.41L11.73 12.41ZM21.16 12.41L21.35 12.41L21.35 12.41Q21.58 12.41 21.79 12.38L21.79 12.38L21.79 12.38Q22.00 12.35 22.16 12.25L22.16 12.25L22.16 12.25Q22.31 12.15 22.40 11.97L22.40 11.97L22.40 11.97Q22.50 11.78 22.50 11.47L22.50 11.47L22.50 7.03L22.50 7.03Q22.50 6.73 22.40 6.54L22.40 6.54L22.40 6.54Q22.31 6.35 22.16 6.25L22.16 6.25L22.16 6.25Q22.00 6.15 21.79 6.11L21.79 6.11L21.79 6.11Q21.58 6.08 21.35 6.08L21.35 6.08L21.31 6.08L21.31 5.49L23.81 5.49L23.81 11.40L23.81 11.40Q23.81 11.73 23.90 11.93L23.90 11.93L23.90 11.93Q23.99 12.13 24.15 12.23L24.15 12.23L24.15 12.23Q24.30 12.34 24.51 12.37L24.51 12.37L24.51 12.37Q24.73 12.41 24.96 12.41L24.96 12.41L25.14 12.41L25.14 13.00L21.16 13.00L21.16 12.41ZM22.30 3.22L22.30 3.22L22.30 3.22Q22.30 2.97 22.36 2.81L22.36 2.81L22.36 2.81Q22.42 2.65 22.53 2.54L22.53 2.54L22.53 2.54Q22.64 2.44 22.78 2.40L22.78 2.40L22.78 2.40Q22.93 2.36 23.10 2.36L23.10 2.36L23.10 2.36Q23.26 2.36 23.41 2.40L23.41 2.40L23.41 2.40Q23.55 2.44 23.66 2.54L23.66 2.54L23.66 2.54Q23.76 2.65 23.83 2.81L23.83 2.81L23.83 2.81Q23.89 2.97 23.89 3.22L23.89 3.22L23.89 3.22Q23.89 3.47 23.83 3.63L23.83 3.63L23.83 3.63Q23.76 3.79 23.66 3.90L23.66 3.90L23.66 3.90Q23.55 4.00 23.41 4.04L23.41 4.04L23.41 4.04Q23.26 4.09 23.10 4.09L23.10 4.09L23.10 4.09Q22.93 4.09 22.78 4.04L22.78 4.04L22.78 4.04Q22.64 4.00 22.53 3.90L22.53 3.90L22.53 3.90Q22.42 3.79 22.36 3.63L22.36 3.63L22.36 3.63Q22.30 3.47 22.30 3.22ZM29.03 12.39L29.03 12.39L29.03 12.39Q29.29 12.39 29.50 12.37L29.50 12.37L29.50 12.37Q29.71 12.34 29.93 12.30L29.93 12.30L29.93 12.91L29.93 12.91Q29.84 12.95 29.70 13.00L29.70 13.00L29.70 13.00Q29.55 13.04 29.38 13.07L29.38 13.07L29.38 13.07Q29.22 13.10 29.03 13.11L29.03 13.11L29.03 13.11Q28.85 13.13 28.68 13.13L28.68 13.13L28.68 13.13Q28.15 13.13 27.77 13.02L27.77 13.02L27.77 13.02Q27.38 12.91 27.14 12.65L27.14 12.65L27.14 12.65Q26.89 12.40 26.77 11.98L26.77 11.98L26.77 11.98Q26.65 11.57 26.65 10.96L26.65 10.96L26.65 6.29L25.59 6.29L25.59 5.73L25.59 5.73Q25.84 5.73 26.14 5.63L26.14 5.63L26.14 5.63Q26.45 5.52 26.68 5.28L26.68 5.28L26.68 5.28Q26.92 5.02 27.07 4.67L27.07 4.67L27.07 4.67Q27.21 4.31 27.32 3.77L27.32 3.77L27.97 3.77L27.97 5.49L29.80 5.49L29.80 6.29L27.97 6.29L27.97 11.01L27.97 11.01Q27.97 11.72 28.26 12.06L28.26 12.06L28.26 12.06Q28.55 12.39 29.03 12.39ZM34.23 12.41L34.27 12.41L34.27 13.00L30.50 13.00L30.50 12.41L30.61 12.41L30.61 12.41Q30.85 12.41 31.06 12.37L31.06 12.37L31.06 12.37Q31.27 12.34 31.42 12.23L31.42 12.23L31.42 12.23Q31.58 12.13 31.67 11.93L31.67 11.93L31.67 11.93Q31.76 11.73 31.76 11.40L31.76 11.40L31.76 3.90L31.76 3.90Q31.76 3.59 31.67 3.40L31.67 3.40L31.67 3.40Q31.58 3.21 31.42 3.11L31.42 3.11L31.42 3.11Q31.26 3.01 31.05 2.98L31.05 2.98L31.05 2.98Q30.84 2.95 30.61 2.95L30.61 2.95L30.50 2.95L30.50 2.36L33.08 2.36L33.08 5.43L33.08 5.43Q33.08 5.63 33.07 5.83L33.07 5.83L33.07 5.83Q33.07 6.04 33.05 6.22L33.05 6.22L33.05 6.22Q33.04 6.43 33.02 6.62L33.02 6.62L33.09 6.62L33.09 6.62Q33.72 5.35 35.15 5.35L35.15 5.35L35.15 5.35Q35.75 5.35 36.21 5.51L36.21 5.51L36.21 5.51Q36.67 5.67 36.98 6.01L36.98 6.01L36.98 6.01Q37.30 6.34 37.46 6.86L37.46 6.86L37.46 6.86Q37.63 7.38 37.63 8.09L37.63 8.09L37.63 11.40L37.63 11.40Q37.63 11.73 37.71 11.93L37.71 11.93L37.71 11.93Q37.79 12.13 37.93 12.23L37.93 12.23L37.93 12.23Q38.08 12.34 38.27 12.37L38.27 12.37L38.27 12.37Q38.47 12.41 38.71 12.41L38.71 12.41L38.75 12.41L38.75 13.00L36.31 13.00L36.31 8.16L36.31 8.16Q36.31 7.70 36.23 7.35L36.23 7.35L36.23 7.35Q36.15 6.99 35.97 6.75L35.97 6.75L35.97 6.75Q35.79 6.50 35.49 6.37L35.49 6.37L35.49 6.37Q35.20 6.25 34.77 6.25L34.77 6.25L34.77 6.25Q34.34 6.25 34.02 6.41L34.02 6.41L34.02 6.41Q33.70 6.57 33.49 6.87L33.49 6.87L33.49 6.87Q33.28 7.16 33.18 7.58L33.18 7.58L33.18 7.58Q33.08 8.00 33.08 8.52L33.08 8.52L33.08 11.47L33.08 11.47Q33.08 11.78 33.17 11.97L33.17 11.97L33.17 11.97Q33.26 12.15 33.42 12.25L33.42 12.25L33.42 12.25Q33.58 12.35 33.79 12.38L33.79 12.38L33.79 12.38Q34.00 12.41 34.23 12.41L34.23 12.41ZM47.17 13.00L39.67 13.00L39.67 12.41L39.85 12.41L39.85 12.41Q40.09 12.41 40.29 12.37L40.29 12.37L40.29 12.37Q40.50 12.34 40.66 12.23L40.66 12.23L40.66 12.23Q40.82 12.13 40.91 11.93L40.91 11.93L40.91 11.93Q41.00 11.73 41.00 11.40L41.00 11.40L41.00 4.59L41.00 4.59Q41.00 4.27 40.91 4.07L40.91 4.07L40.91 4.07Q40.82 3.87 40.66 3.76L40.66 3.76L40.66 3.76Q40.50 3.66 40.29 3.62L40.29 3.62L40.29 3.62Q40.09 3.59 39.85 3.59L39.85 3.59L39.67 3.59L39.67 3.00L43.74 3.00L43.74 3.59L43.56 3.59L43.56 3.59Q43.33 3.59 43.12 3.62L43.12 3.62L43.12 3.62Q42.91 3.65 42.75 3.75L42.75 3.75L42.75 3.75Q42.59 3.86 42.50 4.04L42.50 4.04L42.50 4.04Q42.41 4.23 42.41 4.54L42.41 4.54L42.41 12.30L45.17 12.30L45.17 12.30Q45.49 12.30 45.71 12.19L45.71 12.19L45.71 12.19Q45.93 12.07 46.07 11.89L46.07 11.89L46.07 11.89Q46.22 11.71 46.30 11.48L46.30 11.48L46.30 11.48Q46.38 11.26 46.40 11.03L46.40 11.03L46.54 9.99L47.27 9.99L47.17 13.00ZM48.18 12.41L48.36 12.41L48.36 12.41Q48.60 12.41 48.81 12.38L48.81 12.38L48.81 12.38Q49.01 12.35 49.17 12.25L49.17 12.25L49.17 12.25Q49.33 12.15 49.42 11.97L49.42 11.97L49.42 11.97Q49.51 11.78 49.51 11.47L49.51 11.47L49.51 7.03L49.51 7.03Q49.51 6.73 49.42 6.54L49.42 6.54L49.42 6.54Q49.33 6.35 49.17 6.25L49.17 6.25L49.17 6.25Q49.01 6.15 48.81 6.11L48.81 6.11L48.81 6.11Q48.60 6.08 48.36 6.08L48.36 6.08L48.32 6.08L48.32 5.49L50.83 5.49L50.83 11.40L50.83 11.40Q50.83 11.73 50.92 11.93L50.92 11.93L50.92 11.93Q51.01 12.13 51.16 12.23L51.16 12.23L51.16 12.23Q51.32 12.34 51.53 12.37L51.53 12.37L51.53 12.37Q51.74 12.41 51.97 12.41L51.97 12.41L52.16 12.41L52.16 13.00L48.18 13.00L48.18 12.41ZM49.31 3.22L49.31 3.22L49.31 3.22Q49.31 2.97 49.38 2.81L49.38 2.81L49.38 2.81Q49.44 2.65 49.55 2.54L49.55 2.54L49.55 2.54Q49.66 2.44 49.80 2.40L49.80 2.40L49.80 2.40Q49.94 2.36 50.11 2.36L50.11 2.36L50.11 2.36Q50.28 2.36 50.42 2.40L50.42 2.40L50.42 2.40Q50.57 2.44 50.67 2.54L50.67 2.54L50.67 2.54Q50.78 2.65 50.84 2.81L50.84 2.81L50.84 2.81Q50.91 2.97 50.91 3.22L50.91 3.22L50.91 3.22Q50.91 3.47 50.84 3.63L50.84 3.63L50.84 3.63Q50.78 3.79 50.67 3.90L50.67 3.90L50.67 3.90Q50.57 4.00 50.42 4.04L50.42 4.04L50.42 4.04Q50.28 4.09 50.11 4.09L50.11 4.09L50.11 4.09Q49.94 4.09 49.80 4.04L49.80 4.04L49.80 4.04Q49.66 4.00 49.55 3.90L49.55 3.90L49.55 3.90Q49.44 3.79 49.38 3.63L49.38 3.63L49.38 3.63Q49.31 3.47 49.31 3.22ZM55.28 13.13L55.28 13.13L55.28 13.13Q54.75 13.13 54.32 13.04L54.32 13.04L54.32 13.04Q53.89 12.95 53.59 12.76L53.59 12.76L53.59 12.76Q53.29 12.57 53.13 12.29L53.13 12.29L53.13 12.29Q52.96 12.02 52.96 11.65L52.96 11.65L52.96 11.65Q52.96 11.37 53.06 11.18L53.06 11.18L53.06 11.18Q53.15 10.99 53.28 10.88L53.28 10.88L53.28 10.88Q53.42 10.77 53.57 10.73L53.57 10.73L53.57 10.73Q53.72 10.68 53.85 10.68L53.85 10.68L53.85 10.68Q53.85 11.05 53.92 11.38L53.92 11.38L53.92 11.38Q54.00 11.70 54.17 11.94L54.17 11.94L54.17 11.94Q54.35 12.18 54.64 12.32L54.64 12.32L54.64 12.32Q54.93 12.46 55.36 12.46L55.36 12.46L55.36 12.46Q55.73 12.46 56.02 12.37L56.02 12.37L56.02 12.37Q56.31 12.28 56.50 12.11L56.50 12.11L56.50 12.11Q56.70 11.94 56.80 11.71L56.80 11.71L56.80 11.71Q56.90 11.47 56.90 11.19L56.90 11.19L56.90 11.19Q56.90 10.93 56.82 10.74L56.82 10.74L56.82 10.74Q56.75 10.55 56.55 10.39L56.55 10.39L56.55 10.39Q56.36 10.23 56.02 10.06L56.02 10.06L56.02 10.06Q55.69 9.88 55.18 9.67L55.18 9.67L55.18 9.67Q54.64 9.43 54.24 9.20L54.24 9.20L54.24 9.20Q53.84 8.98 53.58 8.72L53.58 8.72L53.58 8.72Q53.32 8.46 53.19 8.13L53.19 8.13L53.19 8.13Q53.06 7.80 53.06 7.34L53.06 7.34L53.06 7.34Q53.06 6.86 53.25 6.49L53.25 6.49L53.25 6.49Q53.44 6.13 53.79 5.88L53.79 5.88L53.79 5.88Q54.13 5.63 54.62 5.50L54.62 5.50L54.62 5.50Q55.10 5.37 55.70 5.37L55.70 5.37L55.70 5.37Q56.20 5.37 56.58 5.47L56.58 5.47L56.58 5.47Q56.96 5.57 57.22 5.75L57.22 5.75L57.22 5.75Q57.48 5.92 57.61 6.16L57.61 6.16L57.61 6.16Q57.74 6.39 57.74 6.65L57.74 6.65L57.74 6.65Q57.74 7.03 57.48 7.26L57.48 7.26L57.48 7.26Q57.22 7.49 56.73 7.49L56.73 7.49L56.73 7.49Q56.73 6.79 56.44 6.40L56.44 6.40L56.44 6.40Q56.15 6.01 55.53 6.01L55.53 6.01L55.53 6.01Q55.17 6.01 54.92 6.09L54.92 6.09L54.92 6.09Q54.67 6.17 54.51 6.32L54.51 6.32L54.51 6.32Q54.35 6.47 54.27 6.68L54.27 6.68L54.27 6.68Q54.20 6.88 54.20 7.13L54.20 7.13L54.20 7.13Q54.20 7.40 54.29 7.59L54.29 7.59L54.29 7.59Q54.39 7.79 54.60 7.95L54.60 7.95L54.60 7.95Q54.80 8.11 55.14 8.27L55.14 8.27L55.14 8.27Q55.47 8.42 55.93 8.61L55.93 8.61L55.93 8.61Q56.49 8.85 56.88 9.07L56.88 9.07L56.88 9.07Q57.28 9.30 57.53 9.56L57.53 9.56L57.53 9.56Q57.79 9.83 57.91 10.17L57.91 10.17L57.91 10.17Q58.04 10.50 58.04 10.94L58.04 10.94L58.04 10.94Q58.04 11.48 57.84 11.89L57.84 11.89L57.84 11.89Q57.64 12.30 57.28 12.58L57.28 12.58L57.28 12.58Q56.92 12.86 56.41 13.00L56.41 13.00L56.41 13.00Q55.90 13.13 55.28 13.13ZM62.36 12.39L62.36 12.39L62.36 12.39Q62.62 12.39 62.83 12.37L62.83 12.37L62.83 12.37Q63.04 12.34 63.26 12.30L63.26 12.30L63.26 12.91L63.26 12.91Q63.17 12.95 63.03 13.00L63.03 13.00L63.03 13.00Q62.88 13.04 62.72 13.07L62.72 13.07L62.72 13.07Q62.55 13.10 62.36 13.11L62.36 13.11L62.36 13.11Q62.18 13.13 62.02 13.13L62.02 13.13L62.02 13.13Q61.48 13.13 61.10 13.02L61.10 13.02L61.10 13.02Q60.72 12.91 60.47 12.65L60.47 12.65L60.47 12.65Q60.22 12.40 60.10 11.98L60.10 11.98L60.10 11.98Q59.99 11.57 59.99 10.96L59.99 10.96L59.99 6.29L58.92 6.29L58.92 5.73L58.92 5.73Q59.17 5.73 59.48 5.63L59.48 5.63L59.48 5.63Q59.78 5.52 60.01 5.28L60.01 5.28L60.01 5.28Q60.25 5.02 60.40 4.67L60.40 4.67L60.40 4.67Q60.55 4.31 60.66 3.77L60.66 3.77L61.30 3.77L61.30 5.49L63.13 5.49L63.13 6.29L61.30 6.29L61.30 11.01L61.30 11.01Q61.30 11.72 61.59 12.06L61.59 12.06L61.59 12.06Q61.88 12.39 62.36 12.39Z"></path></g><!----><g data-v-423bf9ae="" id="e2a73843-9f98-4a8a-81be-4c3de3c94db2" transform="matrix(1.1651239395141602,0,0,1.1651239395141602,-5.2562103271484375,-12.878615379333496)" stroke="none" fill="white"><path d="M73.86 23.383a20 20 0 0 0-2.657.187C66.736 15.92 59.307 11.377 51.2 11.377c-8.282 0-15.787 4.687-20.224 12.583a20.972 20.972 0 0 0-4.837-.577C14.483 23.383 5 32.867 5 44.523c0 11.657 9.483 21.141 21.14 21.141.232 0 .473-.007.726-.018v21.6c0 .76.615 1.376 1.376 1.376H73.86c.76 0 1.376-.616 1.376-1.376V65.613a21.118 21.118 0 0 0 18.099-12.865A20.974 20.974 0 0 0 95 44.523c0-11.656-9.483-21.14-21.14-21.14zm-1.376 62.488H29.617V65.779a22.645 22.645 0 0 0 8.998-3.382 24.488 24.488 0 0 0 5.112 2.393 19.876 19.876 0 0 0 7.491 1.471c2.761 0 5.393-.574 7.788-1.593a24.525 24.525 0 0 0 3.543-1.563 23.137 23.137 0 0 0 9.936 2.903v19.863zm18.317-34.197c-2.795 6.598-9.337 11.238-16.941 11.238-3.109 0-6.12-.783-8.815-2.261a18.832 18.832 0 0 0 5.366-10.204 1.377 1.377 0 0 0-2.711-.474c-.635 3.633-2.474 6.794-5.066 9.152l-.035-.024-.959.623c-3.188 2.074-6.799 3.17-10.438 3.17-4.125 0-8.133-1.372-11.591-3.966l-.164-.123a16.086 16.086 0 0 1-4.709-8.833 1.375 1.375 0 1 0-2.711.474 18.796 18.796 0 0 0 4.474 9.251 18.144 18.144 0 0 1-8.258 3.081h-.001c-.303.034-.607.065-.914.084a16.1 16.1 0 0 1-1.186.049c-10.139 0-18.388-8.249-18.388-18.389 0-10.139 8.25-18.388 18.388-18.388 1.614 0 3.264.23 4.901.683l1.336.369.645-1.227c3.894-7.408 10.69-11.83 18.179-11.83 7.308 0 14.018 4.26 17.948 11.394l.583 1.06 1.196-.191a18.452 18.452 0 0 1 2.933-.257c10.139 0 18.388 8.249 18.388 18.388a18.339 18.339 0 0 1-1.45 7.151z"></path></g><!----></svg>